<svg height="512" viewBox="0 0 60 60" width="512" xmlns="http://www.w3.org/2000/svg"><g id="Page-1" fill="none" fill-rule="evenodd"><g id="101---Upload" fill-rule="nonzero"><circle id="Oval" cx="30" cy="30" fill="#c70101" r="29"/><path id="Shape" d="m30 1c-.5033333 0-1.0033333.01266667-1.5.038 15.4192225.79012792 27.5158989 13.5225465 27.5158989 28.962s-12.0966764 28.1718721-27.5158989 28.962c.4973333.0253333.9973333.038 1.5.038 16.0162576-.0000002 28.9999996-12.9837424 28.9999996-29s-12.983742-28.99999976-28.9999996-29z" fill="#c70101"/><circle id="Oval" cx="30" cy="30" fill="#fff" r="25"/><path id="Shape" d="m30 5c-.5 0-1 .019-1.5.049 13.1671239.83401357 23.4196519 11.7564891 23.4196519 24.95s-10.252528 24.1159864-23.4196519 24.95c.5.03 1 .049 1.5.049 13.7193264-.1227131 24.7763954-11.2791248 24.7763954-24.999s-11.057069-24.87628693-24.7763954-24.999z" fill="#cfd8dc"/><path id="Shape" d="m34 33c0-.5522847.4477153-1 1-1h2.865c.3879065-.0001454.7407342-.2246105.9052432-.5759056.1645089-.3512952.111017-.7660368-.1372432-1.0640944l-7.865-9.438c-.1899952-.2278341-.4713411-.3595502-.768-.3595502s-.5780048.1317161-.768.3595502l-7.865 9.438c-.2482602.2980576-.3017521.7127992-.1372432 1.0640944.164509.3512951.5173367.5757602.9052432.5759056h2.865c.5522847 0 1 .4477153 1 1v6c0 .5522847.4477153 1 1 1h6c.5522847 0 1-.4477153 1-1z" fill="#c70101"/><path id="Shape" d="m38.633 30.36-7.865-9.438c-.1899952-.2278341-.4713411-.3595502-.768-.3595502s-.5780048.1317161-.768.3595502l-.732.878 7.133 8.56c.2482602.2980576.3017521.7127992.1372432 1.0640944-.164509.3512951-.5173367.5757602-.9052432.5759056h-2.865c-.5522847 0-1 .4477153-1 1v6c0 .5522847-.4477153 1-1 1h3c.5522847 0 1-.4477153 1-1v-6c0-.5522847.4477153-1 1-1h2.865c.3879065-.0001454.7407342-.2246105.9052432-.5759056.1645089-.3512952.111017-.7660368-.1372432-1.0640944z" fill="#c70101"/><g fill="#000"><path id="Shape" d="m30 0c-16.5685425 0-30 13.4314575-30 30s13.4314575 30 30 30 30-13.4314575 30-30c-.018737-16.5607751-13.4392249-29.98126296-30-30zm0 58c-15.463973 0-28-12.536027-28-28s12.536027-28 28-28 28 12.536027 28 28c-.0176345 15.4566626-12.5433374 27.9823655-28 28z"/><path id="Shape" d="m34.762 49.428c-1.5586296.3810627-3.1574646.573111-4.762.572-.5522847 0-1 .4477153-1 1s.4477153 1 1 1c1.7650199.0010376 3.5237217-.2108259 5.238-.631.3590181-.0734995.6490751-.3374891.7559582-.6880204.1068831-.3505314.0134692-.7314479-.243459-.9927601-.2569282-.2613123-.6362098-.3611571-.9884992-.2602195z"/><path id="Shape" d="m39.122 48.941c.2641108.4847591.8710741.6638043 1.356.4 1.104242-.6019048 2.1556489-1.2960408 3.143-2.075.4047391-.3504446.461676-.9574863.129162-1.3770808-.3325139-.4195946-.9365057-.5028735-1.370162-.1889192-.8976887.7088468-1.8537684 1.3404348-2.858 1.888-.4829893.264043-.6617722.8687762-.4 1.353z"/><path id="Shape" d="m47.809 42.9c2.7323821-3.7453612 4.2003772-8.2638858 4.191-12.9 0-.5522847-.4477153-1-1-1s-1 .4477153-1 1c.0089697 4.214786-1.3252252 8.3228033-3.809 11.728-.2932003.4467484-.1833582 1.0450717.2494062 1.358545s1.0355133.2313161 1.3685938-.186545z"/><path id="Shape" d="m30 4c-3.5799929-.00713892-7.1221075.73261809-10.4 2.172-.3515292.12617922-.603445.43773808-.653235.80789332-.04979.37015525.1108452.73720681.4165381.95178968s.7054884.24092888 1.0366969.068317c3.0261823-1.32674615 6.2957645-2.00790911 9.6-2 13.254834 0 24 10.745166 24 24s-10.745166 24-24 24-24-10.745166-24-24c-.00744034-3.3041877.67370269-6.5736743 2-9.6.1561038-.3294859.12051515-.7178184-.09287666-1.0134419-.21339182-.2956236-.57076379-.4516812-.93264332-.4072679-.36187952.0444134-.67090802.2822581-.80648002.6207098-1.43755831 3.2783321-2.17593053 6.8203391-2.168 10.4 0 10.5160184 6.3346966 19.9965618 16.0502308 24.0208678 9.7155341 4.024306 20.8985976 1.7998564 28.3345455-5.6360915s9.6603975-18.6190114 5.6360915-28.3345455c-4.024306-9.7155342-13.5048494-16.0502308-24.0208678-16.0502308z"/><path id="Shape" d="m10.8 15c.2965689.0001361.5778994-.1313712.768-.359.6113037-.7311389 1.2647475-1.4259864 1.957-2.081.2597321-.2454415.368793-.6108041.2861005-.9584595-.0826925-.3476553-.3445754-.6247861-.687-.727-.3424246-.1022138-.7133684-.013982-.9731005.2314595-.7492326.709153-1.4564352 1.4614323-2.118 2.253-.24877983.2978918-.30272637.7128276-.13838835 1.0644295.16433805.351602.51727645.5763606.90538835.5765705z"/><path id="Shape" d="m31.537 20.282c-.3913321-.436775-.9500589-.6863603-1.5365-.6863603s-1.1451679.2495853-1.5365.6863603l-7.864 9.438c-.4964051.5959764-.6034646 1.4252273-.2746989 2.1277364.3287656.7025091 1.0340666 1.1515852 1.8096989 1.1522636h2.865v6c0 1.1045695.8954305 2 2 2h6c1.1045695 0 2-.8954305 2-2v-2c0-.5522847-.4477153-1-1-1s-1 .4477153-1 1v2h-6v-6c0-1.1045695-.8954305-2-2-2h-2.865l7.865-9.437 7.865 9.437h-2.865c-1.1045695 0-2 .8954305-2 2 0 .5522847.4477153 1 1 1s1-.4477153 1-1h2.865c.7760183-.0003555 1.4817842-.4495792 1.8106311-1.1524761.328847-.702897.2214087-1.5325743-.2756311-2.1285239z"/></g></g></g></svg>